<?xml version="1.0" encoding="utf-8"?>
<!-- Generator: Adobe Illustrator 23.1.1, SVG Export Plug-In . SVG Version: 6.00 Build 0)  -->
<svg version="1.1" id="Layer_1" xmlns="http://www.w3.org/2000/svg" xmlns:xlink="http://www.w3.org/1999/xlink" x="0px" y="0px"
	 viewBox="0 0 20 20" style="enable-background:new 0 0 20 20;" xml:space="preserve">
<style type="text/css">
	.st0{fill:#7F7E7E;}
</style>
<g id="XMLID_1_">
	<g id="XMLID_2_">
		<path id="XMLID_3_" class="st0" d="M10,18.7l-7.7-7.9C2.2,10.7,0.5,9,0.5,6.7c0-3.6,2.7-5.2,5.3-5.2c1.9,0,3.6,1.2,4.3,1.8
			c0.7-0.6,2.3-1.8,4.3-1.8c2.5,0,5.3,1.6,5.3,5.2c0,2.3-1.8,4-1.8,4.1L10,18.7z M5.7,2.5c-2,0-4.2,1.3-4.2,4.2
			c0,1.9,1.5,3.3,1.5,3.3l7,7.2l7-7.2c0,0,1.5-1.5,1.5-3.4c0-2.9-2.2-4.2-4.2-4.2c-2.1,0-3.9,1.8-3.9,1.8L10,4.7L9.6,4.4
			C9.6,4.3,7.8,2.5,5.7,2.5z"/>
	</g>
</g>
</svg>
